<svg width="512" height="512" viewBox="0 0 512 512" fill="none" xmlns="http://www.w3.org/2000/svg">
<g clip-path="url(#clip0_4_128)">
<path d="M175.467 122.514V141.532C172.378 144.62 170.468 148.887 170.468 153.6V187.734C170.468 197.16 178.109 204.801 187.535 204.801H204.602H375.268H392.335C401.761 204.801 409.402 197.16 409.402 187.734V153.6C409.402 148.887 407.492 144.62 404.403 141.532V122.515H175.467V122.514Z" fill="#FFCDBE"/>
<path d="M404.403 141.531V122.514H380.709V138.843C383.798 141.932 385.708 146.198 385.708 150.911V187.733C385.708 197.159 378.067 204.8 368.641 204.8H375.269H392.336C401.762 204.8 409.403 197.159 409.403 187.733V153.599C409.401 148.886 407.491 144.62 404.403 141.531Z" fill="#EBAE9D"/>
<path d="M238.734 257.503V331.298L341.134 331.294V257.514L238.734 257.503Z" fill="#FFCDBE"/>
<path d="M317.44 257.513H341.134V331.295H317.44V257.513Z" fill="#EBAE9D"/>
<path d="M364.873 111.198H204.602L204.603 204.803C204.603 251.931 242.808 290.135 289.935 290.135C299.57 290.135 308.822 288.515 317.461 285.571L325.408 273.066H341.139C361.861 257.497 375.267 232.717 375.267 204.803L364.873 172.798V111.198Z" fill="#FFCDBE"/>
<path d="M351.574 111.198V204.803C351.574 247.908 319.606 283.528 278.089 289.298C281.963 289.836 285.914 290.135 289.936 290.135C337.064 290.135 375.269 251.93 375.269 204.803V111.198H351.574Z" fill="#EBAE9D"/>
<path d="M196.069 107.551L196.068 51.2C196.068 22.923 218.991 0 247.268 0H332.602C360.879 0 383.802 22.923 383.802 51.2V107.551H196.069Z" fill="#FF5533"/>
<path d="M238.735 107.551V51.2C238.735 22.923 261.658 0 289.935 0C318.212 0 341.135 22.923 341.135 51.2V107.551H238.735Z" fill="#FFF5F5"/>
<path d="M332.602 0H308.908C337.185 0 360.108 22.923 360.108 51.201V107.552H383.802V51.201C383.802 22.923 360.879 0 332.602 0V0Z" fill="#CC295F"/>
<path d="M255.801 186.927C251.534 186.927 248.075 183.468 248.075 179.201V170.667C248.075 166.4 251.534 162.941 255.801 162.941C260.068 162.941 263.527 166.4 263.527 170.667V179.201C263.528 183.467 260.069 186.927 255.801 186.927Z" fill="#4F5A61"/>
<path d="M324.068 186.927C319.801 186.927 316.342 183.468 316.342 179.201V170.667C316.342 166.4 319.801 162.941 324.068 162.941C328.335 162.941 331.794 166.4 331.794 170.667V179.201C331.794 183.467 328.335 186.927 324.068 186.927Z" fill="#4F5A61"/>
<path d="M407.954 138.254C402.776 144.494 393.9 146.105 386.81 142.171C370.693 133.229 338.066 119.467 289.935 119.467C241.805 119.467 209.178 133.229 193.061 142.171C185.971 146.105 177.094 144.494 171.917 138.254L171.828 138.147C164.897 129.917 167.23 117.435 176.636 112.21C196.909 100.948 234.935 85.334 289.936 85.334C344.937 85.334 382.963 100.948 403.236 112.21C412.642 117.435 414.975 129.917 408.044 138.147L407.954 138.254Z" fill="#CC295F"/>
<path d="M294.201 58.927H285.668C281.401 58.927 277.942 55.468 277.942 51.201C277.942 46.934 281.401 43.475 285.668 43.475H294.201C298.468 43.475 301.927 46.934 301.927 51.201C301.928 55.467 298.468 58.927 294.201 58.927Z" fill="#FFE14D"/>
<path d="M289.935 229.596C281.126 229.596 272.903 224.85 268.475 217.211C266.335 213.519 267.593 208.791 271.285 206.652C274.978 204.513 279.704 205.77 281.844 209.462C283.518 212.35 286.618 214.144 289.935 214.144C293.252 214.144 296.352 212.35 298.026 209.462C300.166 205.771 304.893 204.513 308.585 206.652C312.277 208.792 313.535 213.519 311.395 217.211C306.967 224.85 298.744 229.596 289.935 229.596Z" fill="#EBAE9D"/>
<path d="M460.599 392.531C460.599 354.83 430.037 324.268 392.336 324.268H358.2H221.667H187.531C185.4 324.268 183.292 324.366 181.211 324.557L119.267 341.334V494.934C119.267 504.36 126.908 512.001 136.334 512.001H282.21L291.058 505.992L297.663 512.001H443.535C452.961 512.001 460.602 504.36 460.602 494.934L460.599 392.531Z" fill="#FF5533"/>
<path d="M350.2 315.733H297.66L289.461 320.321L282.211 315.733H229.667C225.249 315.733 221.667 319.315 221.667 323.733V333.866C221.667 342.703 228.83 349.866 237.667 349.866H342.2C351.037 349.866 358.2 342.703 358.2 333.866V323.733C358.2 319.315 354.618 315.733 350.2 315.733Z" fill="#CC295F"/>
<path d="M282.209 315.732H297.662V512H282.209V315.732Z" fill="#FFF5F5"/>
<path d="M401.4 426.667H349.133C344.715 426.667 341.133 423.085 341.133 418.667V400.534C341.133 396.116 344.715 392.534 349.133 392.534H401.4C405.818 392.534 409.4 396.116 409.4 400.534V418.667C409.4 423.085 405.818 426.667 401.4 426.667Z" fill="#FFF5F5"/>
<path d="M403.234 112.21C396.749 108.607 388.438 104.56 378.345 100.721C378.746 100.939 379.152 101.159 379.54 101.375C388.946 106.6 391.279 119.082 384.348 127.313L384.259 127.42C379.738 132.869 372.396 134.786 365.886 132.566C374.577 135.852 381.571 139.267 386.809 142.173C393.899 146.107 402.776 144.496 407.953 138.256L408.042 138.149C414.973 129.917 412.64 117.435 403.234 112.21Z" fill="#B32453"/>
<path d="M460.599 392.531C460.599 354.831 430.037 324.268 392.336 324.268H368.656C406.35 324.276 436.905 354.834 436.905 392.531L436.906 494.933C436.906 504.359 429.265 512 419.839 512H443.533C452.959 512 460.6 504.359 460.6 494.933L460.599 392.531Z" fill="#CC295F"/>
<path d="M401.159 392.533H377.269C381.821 392.533 385.51 396.223 385.51 400.774V418.424C385.51 422.976 381.82 426.665 377.269 426.665H401.159C405.711 426.665 409.4 422.975 409.4 418.424V400.774C409.4 396.223 405.71 392.533 401.159 392.533Z" fill="#ECE6F2"/>
<path d="M349.959 315.733H326.265C330.816 315.733 334.506 319.423 334.506 323.974V333.383C334.506 342.486 327.126 349.866 318.023 349.866H341.717C350.82 349.866 358.2 342.486 358.2 333.383V323.974C358.2 319.423 354.51 315.733 349.959 315.733Z" fill="#B32453"/>
<path d="M162.225 273.067H136.333L119.266 277.334L102.199 273.067H76.308C71.756 273.067 68.066 276.757 68.066 281.308V329.418H170.466V281.308C170.466 276.757 166.776 273.067 162.225 273.067Z" fill="#FF5533"/>
<path d="M102.2 273.067H136.333V329.418H102.2V273.067Z" fill="#FFF5F5"/>
<path d="M162.225 273.067H138.531C143.082 273.067 146.772 276.757 146.772 281.308V329.418H170.466V281.308C170.466 276.757 166.776 273.067 162.225 273.067Z" fill="#CC295F"/>
<path d="M179.533 358.4H59C54.582 358.4 51 354.818 51 350.4V332.267C51 327.849 54.582 324.267 59 324.267H179.533C183.951 324.267 187.533 327.849 187.533 332.267V350.4C187.533 354.818 183.951 358.4 179.533 358.4Z" fill="#FFE14D"/>
<path d="M119.266 460.8C147.543 460.8 170.466 437.877 170.466 409.6C170.466 381.323 147.543 358.4 119.266 358.4C90.9891 358.4 68.066 381.323 68.066 409.6C68.066 437.877 90.9891 460.8 119.266 460.8Z" fill="#FFE14D"/>
<path d="M119.266 426.667C128.692 426.667 136.333 419.026 136.333 409.6C136.333 400.174 128.692 392.533 119.266 392.533C109.84 392.533 102.199 400.174 102.199 409.6C102.199 419.026 109.84 426.667 119.266 426.667Z" fill="#FFBB33"/>
<path d="M179.291 324.267H155.597C160.148 324.267 163.838 327.957 163.838 332.508V350.158C163.838 354.71 160.148 358.4 155.597 358.4H179.291C183.843 358.4 187.533 354.71 187.533 350.158V332.508C187.533 327.957 183.843 324.267 179.291 324.267Z" fill="#FFBB33"/>
<path d="M119.266 358.4C115.186 358.4 111.223 358.891 107.419 359.793C129.981 365.141 146.772 385.403 146.772 409.6C146.772 433.797 129.981 454.06 107.419 459.407C111.223 460.309 115.186 460.8 119.266 460.8C147.543 460.8 170.466 437.877 170.466 409.6C170.466 381.323 147.543 358.4 119.266 358.4Z" fill="#FFBB33"/>
<path d="M175.467 122.514V141.532C172.378 144.62 170.468 148.887 170.468 153.6V187.734C170.468 197.16 178.109 204.801 187.535 204.801H204.602H375.268H392.335C401.761 204.801 409.402 197.16 409.402 187.734V153.6C409.402 148.887 407.492 144.62 404.403 141.532V122.515H175.467V122.514Z" fill="#FFCDBE"/>
<path d="M404.403 141.531V122.514H380.709V138.843C383.798 141.932 385.708 146.198 385.708 150.911V187.733C385.708 197.159 378.067 204.8 368.641 204.8H375.269H392.336C401.762 204.8 409.403 197.159 409.403 187.733V153.599C409.401 148.886 407.491 144.62 404.403 141.531Z" fill="#EBAE9D"/>
<path d="M238.734 257.503V331.298L341.134 331.294V257.514L238.734 257.503Z" fill="#FFCDBE"/>
<path d="M317.44 257.513H341.134V331.295H317.44V257.513Z" fill="#EBAE9D"/>
<path d="M364.873 111.198H204.602L204.603 204.803C204.603 251.931 242.808 290.135 289.935 290.135C299.57 290.135 308.822 288.515 317.461 285.571L325.408 273.066H341.139C361.861 257.497 375.267 232.717 375.267 204.803L364.873 172.798V111.198Z" fill="#FFCDBE"/>
<path d="M351.574 111.198V204.803C351.574 247.908 319.606 283.528 278.089 289.298C281.963 289.836 285.914 290.135 289.936 290.135C337.064 290.135 375.269 251.93 375.269 204.803V111.198H351.574Z" fill="#EBAE9D"/>
<path d="M196.069 107.551L196.068 51.2C196.068 22.923 218.991 0 247.268 0H332.602C360.879 0 383.802 22.923 383.802 51.2V107.551H196.069Z" fill="#3E9B49"/>
<path d="M238.735 107.551V51.2C238.735 22.923 261.658 0 289.935 0C318.212 0 341.135 22.923 341.135 51.2V107.551H238.735Z" fill="#FFF5F5"/>
<path d="M332.602 0H308.908C337.185 0 360.108 22.923 360.108 51.201V107.552H383.802V51.201C383.802 22.923 360.879 0 332.602 0V0Z" fill="#41CB4A"/>
<path d="M255.801 186.927C251.534 186.927 248.075 183.468 248.075 179.201V170.667C248.075 166.4 251.534 162.941 255.801 162.941C260.068 162.941 263.527 166.4 263.527 170.667V179.201C263.528 183.467 260.069 186.927 255.801 186.927Z" fill="#4F5A61"/>
<path d="M324.068 186.927C319.801 186.927 316.342 183.468 316.342 179.201V170.667C316.342 166.4 319.801 162.941 324.068 162.941C328.335 162.941 331.794 166.4 331.794 170.667V179.201C331.794 183.467 328.335 186.927 324.068 186.927Z" fill="#4F5A61"/>
<path d="M407.954 138.254C402.776 144.494 393.9 146.105 386.81 142.171C370.693 133.229 338.066 119.467 289.935 119.467C241.805 119.467 209.178 133.229 193.061 142.171C185.971 146.105 177.094 144.494 171.917 138.254L171.828 138.147C164.897 129.917 167.23 117.435 176.636 112.21C196.909 100.948 234.935 85.334 289.936 85.334C344.937 85.334 382.963 100.948 403.236 112.21C412.642 117.435 414.975 129.917 408.044 138.147L407.954 138.254Z" fill="#41CB4A"/>
<path d="M294.201 58.927H285.668C281.401 58.927 277.942 55.468 277.942 51.201C277.942 46.934 281.401 43.475 285.668 43.475H294.201C298.468 43.475 301.927 46.934 301.927 51.201C301.928 55.467 298.468 58.927 294.201 58.927Z" fill="#FFE14D"/>
<path d="M279.503 253.987C270.694 253.987 262.471 249.241 258.043 241.602C255.903 237.91 257.161 233.182 260.853 231.043C264.546 228.904 269.272 230.161 271.412 233.853C273.086 236.741 276.186 238.535 279.503 238.535C282.82 238.535 285.92 236.741 287.594 233.853C289.734 230.162 294.461 228.904 298.153 231.043C301.845 233.183 303.103 237.91 300.963 241.602C296.535 249.241 288.312 253.987 279.503 253.987Z" fill="#EBAE9D"/>
<path d="M460.599 392.531C460.599 354.83 430.037 324.268 392.336 324.268H358.2H221.667H187.531C185.4 324.268 183.292 324.366 181.211 324.557L119.267 341.334V494.934C119.267 504.36 126.908 512.001 136.334 512.001H282.21L291.058 505.992L297.663 512.001H443.535C452.961 512.001 460.602 504.36 460.602 494.934L460.599 392.531Z" fill="#3E9B49"/>
<path d="M350.2 315.733H297.66L289.461 320.321L282.211 315.733H229.667C225.249 315.733 221.667 319.315 221.667 323.733V333.866C221.667 342.703 228.83 349.866 237.667 349.866H342.2C351.037 349.866 358.2 342.703 358.2 333.866V323.733C358.2 319.315 354.618 315.733 350.2 315.733Z" fill="#41CB4A"/>
<path d="M282.209 315.732H297.662V512H282.209V315.732Z" fill="#FFF5F5"/>
<path d="M401.4 426.667H349.133C344.715 426.667 341.133 423.085 341.133 418.667V400.534C341.133 396.116 344.715 392.534 349.133 392.534H401.4C405.818 392.534 409.4 396.116 409.4 400.534V418.667C409.4 423.085 405.818 426.667 401.4 426.667Z" fill="#FFF5F5"/>
<path d="M403.234 112.21C396.749 108.607 388.438 104.56 378.345 100.721C378.746 100.939 379.152 101.159 379.54 101.375C388.946 106.6 391.279 119.082 384.348 127.313L384.259 127.42C379.738 132.869 372.396 134.786 365.886 132.566C374.577 135.852 381.571 139.267 386.809 142.173C393.899 146.107 402.776 144.496 407.953 138.256L408.042 138.149C414.973 129.917 412.64 117.435 403.234 112.21Z" fill="#3BD84E"/>
<path d="M460.599 392.531C460.599 354.831 430.037 324.268 392.336 324.268H368.656C406.35 324.276 436.905 354.834 436.905 392.531L436.906 494.933C436.906 504.359 429.265 512 419.839 512H443.533C452.959 512 460.6 504.359 460.6 494.933L460.599 392.531Z" fill="#41CB4A"/>
<path d="M401.159 392.533H377.269C381.821 392.533 385.51 396.223 385.51 400.774V418.424C385.51 422.976 381.82 426.665 377.269 426.665H401.159C405.711 426.665 409.4 422.975 409.4 418.424V400.774C409.4 396.223 405.71 392.533 401.159 392.533Z" fill="#41CB4A"/>
<path d="M349.959 315.733H326.265C330.816 315.733 334.506 319.423 334.506 323.974V333.383C334.506 342.486 327.126 349.866 318.023 349.866H341.717C350.82 349.866 358.2 342.486 358.2 333.383V323.974C358.2 319.423 354.51 315.733 349.959 315.733Z" fill="#3BD84E"/>
<path d="M162.225 273.067H136.333L119.266 277.334L102.199 273.067H76.308C71.756 273.067 68.066 276.757 68.066 281.308V329.418H170.466V281.308C170.466 276.757 166.776 273.067 162.225 273.067Z" fill="#3E9B49"/>
<path d="M102.2 273.067H136.333V329.418H102.2V273.067Z" fill="#FFF5F5"/>
<path d="M162.225 273.067H138.531C143.082 273.067 146.772 276.757 146.772 281.308V329.418H170.466V281.308C170.466 276.757 166.776 273.067 162.225 273.067Z" fill="#41CB4A"/>
<path d="M179.533 358.4H59C54.582 358.4 51 354.818 51 350.4V332.267C51 327.849 54.582 324.267 59 324.267H179.533C183.951 324.267 187.533 327.849 187.533 332.267V350.4C187.533 354.818 183.951 358.4 179.533 358.4Z" fill="#FFE14D"/>
<path d="M119.266 460.8C147.543 460.8 170.466 437.877 170.466 409.6C170.466 381.323 147.543 358.4 119.266 358.4C90.9891 358.4 68.066 381.323 68.066 409.6C68.066 437.877 90.9891 460.8 119.266 460.8Z" fill="#FFE14D"/>
<path d="M119.266 426.667C128.692 426.667 136.333 419.026 136.333 409.6C136.333 400.174 128.692 392.533 119.266 392.533C109.84 392.533 102.199 400.174 102.199 409.6C102.199 419.026 109.84 426.667 119.266 426.667Z" fill="#FFBB33"/>
<path d="M179.291 324.267H155.597C160.148 324.267 163.838 327.957 163.838 332.508V350.158C163.838 354.71 160.148 358.4 155.597 358.4H179.291C183.843 358.4 187.533 354.71 187.533 350.158V332.508C187.533 327.957 183.843 324.267 179.291 324.267Z" fill="#FFBB33"/>
<path d="M119.266 358.4C115.186 358.4 111.223 358.891 107.419 359.793C129.981 365.141 146.772 385.403 146.772 409.6C146.772 433.797 129.981 454.06 107.419 459.407C111.223 460.309 115.186 460.8 119.266 460.8C147.543 460.8 170.466 437.877 170.466 409.6C170.466 381.323 147.543 358.4 119.266 358.4Z" fill="#FFBB33"/>
</g>
<defs>
<clipPath id="clip0_4_128">
<rect width="512" height="512" fill="white"/>
</clipPath>
</defs>
</svg>
